<?xml version="1.0" standalone="no"?>
<!DOCTYPE svg PUBLIC "-//W3C//DTD SVG 20010904//EN"
 "http://www.w3.org/TR/2001/REC-SVG-20010904/DTD/svg10.dtd">
<svg version="1.0" xmlns="http://www.w3.org/2000/svg"
 width="228.000000pt" height="228.000000pt" viewBox="0 0 228.000000 228.000000"
 preserveAspectRatio="xMidYMid meet">

<g transform="translate(0.000000,228.000000) scale(0.100000,-0.100000)"
fill="#000000" stroke="none">
<path d="M1055 2046 c-73 -18 -124 -48 -177 -103 -72 -74 -116 -195 -102 -283
l6 -39 33 16 c31 15 33 19 37 77 10 162 142 276 307 264 108 -8 196 -69 240
-168 19 -42 21 -65 21 -306 l0 -262 -36 -36 c-34 -34 -36 -40 -31 -82 7 -62
39 -94 101 -101 42 -5 48 -3 81 30 27 27 35 43 35 71 0 46 -23 93 -50 101 -19
6 -20 15 -20 260 0 286 -9 338 -75 427 -82 111 -239 168 -370 134z"/>
<path d="M1082 1790 c-33 -20 -67 -82 -59 -104 3 -6 -88 -65 -212 -136 -235
-135 -283 -174 -325 -264 -108 -227 47 -493 299 -514 78 -6 184 24 235 66 l34
29 -31 16 c-30 16 -34 16 -89 -10 -193 -88 -409 47 -408 256 1 81 30 153 82
204 20 20 131 90 246 156 204 117 209 120 237 106 15 -8 35 -15 44 -15 35 0
84 32 100 67 47 97 -63 200 -153 143z"/>
<path d="M1319 1474 c-51 -62 -219 -81 -311 -36 l-47 23 -43 -22 -43 -22 51
-22 c99 -44 161 -133 171 -245 5 -54 8 -59 43 -79 l38 -21 -1 72 c-1 112 43
195 136 254 34 22 37 28 37 69 0 47 -9 56 -31 29z m-169 -159 c-12 -15 -30
-12 -30 6 0 5 10 9 21 9 18 0 19 -2 9 -15z"/>
<path d="M1570 1437 c0 -29 7 -38 48 -67 224 -152 142 -487 -128 -525 -73 -10
-133 14 -357 144 -183 105 -213 126 -213 146 0 62 -47 105 -116 105 -28 0 -44
-8 -71 -35 -33 -33 -35 -39 -30 -81 3 -31 13 -55 29 -71 31 -31 98 -42 130
-21 22 14 34 8 228 -105 113 -66 232 -128 265 -139 167 -55 358 29 433 190 23
49 27 70 27 152 0 81 -4 103 -26 150 -34 73 -80 125 -143 161 -66 37 -76 37
-76 -4z"/>
<path d="M720 590 l0 -50 38 1 c30 2 32 3 10 6 -36 6 -37 33 -2 33 14 0 23 4
19 10 -3 6 -15 10 -26 10 -30 0 -23 28 9 33 22 3 20 4 -10 6 l-38 1 0 -50z"/>
<path d="M842 593 l-2 -53 38 2 c36 1 36 1 5 5 -30 4 -32 7 -36 51 l-3 47 -2
-52z"/>
<path d="M950 590 l0 -50 38 2 c36 1 36 1 5 5 -40 5 -46 33 -8 33 14 0 25 5
25 10 0 6 -11 10 -25 10 -38 0 -32 28 8 33 31 4 31 4 -5 5 l-38 2 0 -50z"/>
<path d="M1060 590 c0 -27 5 -50 10 -50 6 0 10 15 10 33 l1 32 17 -27 c9 -16
19 -28 23 -28 3 0 12 12 19 28 l14 27 7 -35 c6 -31 6 -29 7 20 l2 55 -20 -25
c-11 -14 -20 -28 -20 -32 0 -19 -21 -5 -35 22 -23 44 -35 37 -35 -20z"/>
<path d="M1220 590 l0 -50 43 2 c36 1 38 2 10 5 -40 5 -46 33 -8 33 14 0 25 5
25 10 0 6 -11 10 -25 10 -38 0 -32 28 8 33 28 3 26 4 -10 5 l-43 2 0 -50z"/>
<path d="M1340 590 c0 -27 5 -50 10 -50 6 0 10 16 10 37 l0 36 28 -36 c15 -20
30 -36 35 -37 4 0 6 24 6 53 -2 51 -2 51 -8 12 l-6 -40 -29 38 c-15 20 -32 37
-37 37 -5 0 -9 -22 -9 -50z"/>
<path d="M1483 633 c13 -3 17 -15 17 -49 0 -24 5 -44 10 -44 6 0 10 20 10 44
0 34 4 46 18 49 9 3 -3 5 -28 5 -25 0 -37 -2 -27 -5z"/>
<path d="M690 440 l0 -70 445 0 445 0 0 70 0 70 -445 0 -445 0 0 -70z m863 35
c1 -5 -11 -9 -28 -10 -25 0 -30 -4 -30 -25 0 -16 6 -26 18 -28 10 -2 17 3 17
12 0 9 7 16 16 16 10 0 14 -7 12 -22 -2 -17 -11 -24 -34 -26 -61 -6 -86 70
-32 95 24 11 58 4 61 -12z m-763 6 c0 -5 -12 -11 -27 -13 l-28 -4 27 -11 c34
-15 43 -30 27 -49 -14 -17 -76 -16 -71 1 2 6 14 8 29 7 16 -3 23 0 19 7 -4 6
-13 11 -20 11 -8 0 -19 7 -26 15 -10 12 -10 18 0 30 14 16 70 21 70 6z m51
-18 l11 -28 10 28 c12 34 36 35 44 2 3 -14 10 -25 14 -25 4 0 11 11 14 25 4
14 13 25 20 25 12 0 11 -8 -2 -50 -18 -57 -45 -68 -57 -22 l-8 27 -10 -27
c-17 -44 -41 -35 -59 22 -14 43 -14 50 -2 50 8 0 19 -12 25 -27z m169 -23 c0
-38 -4 -50 -15 -50 -11 0 -15 12 -15 50 0 38 4 50 15 50 11 0 15 -12 15 -50z
m55 23 l18 -26 19 26 c29 39 38 33 38 -23 0 -27 -4 -50 -10 -50 -5 0 -10 12
-10 27 l0 27 -16 -22 c-19 -28 -28 -28 -42 1 -10 22 -11 22 -11 -5 -1 -18 -6
-28 -16 -28 -11 0 -15 12 -15 50 0 58 17 66 45 23z m141 0 l22 -28 13 28 c20
45 39 34 39 -23 0 -27 -4 -50 -10 -50 -5 0 -10 12 -10 28 l0 27 -20 -25 c-19
-25 -19 -25 -34 -5 -15 20 -15 20 -16 -2 0 -14 -6 -23 -15 -23 -11 0 -15 12
-15 50 0 58 13 64 46 23z m124 -23 c0 -38 -4 -50 -15 -50 -11 0 -15 12 -15 50
0 38 4 50 15 50 11 0 15 -12 15 -50z m67 23 l22 -28 1 28 c0 17 5 27 15 27 11
0 15 -12 15 -50 0 -58 -16 -66 -49 -24 l-21 27 0 -27 c0 -16 -5 -26 -15 -26
-11 0 -15 12 -15 50 0 58 13 64 47 23z"/>
</g>
</svg>
